<mxfile host="app.diagrams.net" agent="Mozilla/5.0 (Macintosh; Intel Mac OS X 10_15_7) AppleWebKit/537.36 (KHTML, like Gecko) Chrome/134.0.0.0 Safari/537.36" version="26.1.1" pages="4">
  <diagram id="nOsxbvpPCy6UQCYAHZ7n" name="sys_overview">
    <mxGraphModel dx="954" dy="539" grid="1" gridSize="10" guides="1" tooltips="1" connect="1" arrows="1" fold="1" page="1" pageScale="1" pageWidth="827" pageHeight="1169" math="0" shadow="0">
      <root>
        <mxCell id="0" />
        <mxCell id="1" parent="0" />
        <mxCell id="k55XzM7_AfMvwkgNl6W--1" value="" style="rounded=0;whiteSpace=wrap;html=1;" vertex="1" parent="1">
          <mxGeometry x="20" y="20" width="500" height="390" as="geometry" />
        </mxCell>
        <mxCell id="k55XzM7_AfMvwkgNl6W--2" value="CPU Arch" style="text;html=1;align=center;verticalAlign=middle;whiteSpace=wrap;rounded=0;fontSize=20;" vertex="1" parent="1">
          <mxGeometry x="20" y="20" width="110" height="30" as="geometry" />
        </mxCell>
        <mxCell id="k55XzM7_AfMvwkgNl6W--3" value="" style="rounded=0;whiteSpace=wrap;html=1;" vertex="1" parent="1">
          <mxGeometry x="580" y="20" width="180" height="390" as="geometry" />
        </mxCell>
        <mxCell id="k55XzM7_AfMvwkgNl6W--4" value="FPGA&amp;nbsp;&lt;span style=&quot;background-color: transparent; color: light-dark(rgb(0, 0, 0), rgb(255, 255, 255));&quot;&gt;Arch&lt;/span&gt;" style="text;html=1;align=center;verticalAlign=middle;whiteSpace=wrap;rounded=0;fontSize=20;" vertex="1" parent="1">
          <mxGeometry x="580" y="20" width="110" height="30" as="geometry" />
        </mxCell>
        <mxCell id="NWheqMKRCk0c7_515TsI-4" value="" style="rounded=0;whiteSpace=wrap;html=1;dashed=1;" vertex="1" parent="1">
          <mxGeometry x="57.5" y="80" width="365" height="60" as="geometry" />
        </mxCell>
        <mxCell id="NWheqMKRCk0c7_515TsI-1" value="app" style="rounded=0;whiteSpace=wrap;html=1;fontSize=16;" vertex="1" parent="1">
          <mxGeometry x="72.5" y="90" width="90" height="40" as="geometry" />
        </mxCell>
        <mxCell id="NWheqMKRCk0c7_515TsI-2" value="app" style="rounded=0;whiteSpace=wrap;html=1;fontSize=16;" vertex="1" parent="1">
          <mxGeometry x="172.5" y="90" width="90" height="40" as="geometry" />
        </mxCell>
        <mxCell id="NWheqMKRCk0c7_515TsI-3" value="enclave(type1)" style="rounded=0;whiteSpace=wrap;html=1;fontSize=16;labelBackgroundColor=none;fillColor=#dae8fc;strokeColor=#6c8ebf;" vertex="1" parent="1">
          <mxGeometry x="290" y="90" width="112.5" height="40" as="geometry" />
        </mxCell>
        <mxCell id="NWheqMKRCk0c7_515TsI-5" value="U-mode" style="text;html=1;align=center;verticalAlign=middle;whiteSpace=wrap;rounded=0;fontSize=20;" vertex="1" parent="1">
          <mxGeometry x="432.5" y="95" width="80" height="30" as="geometry" />
        </mxCell>
        <mxCell id="NWheqMKRCk0c7_515TsI-6" value="" style="rounded=0;whiteSpace=wrap;html=1;dashed=1;" vertex="1" parent="1">
          <mxGeometry x="57.5" y="170" width="365" height="60" as="geometry" />
        </mxCell>
        <mxCell id="NWheqMKRCk0c7_515TsI-8" value="OS" style="rounded=0;whiteSpace=wrap;html=1;fontSize=16;" vertex="1" parent="1">
          <mxGeometry x="57.5" y="170" width="152.5" height="60" as="geometry" />
        </mxCell>
        <mxCell id="NWheqMKRCk0c7_515TsI-9" value="enclave(type2)" style="rounded=0;whiteSpace=wrap;html=1;fontSize=16;fillColor=#d5e8d4;strokeColor=#82b366;" vertex="1" parent="1">
          <mxGeometry x="301" y="180" width="112.5" height="40" as="geometry" />
        </mxCell>
        <mxCell id="NWheqMKRCk0c7_515TsI-10" value="S-mode" style="text;html=1;align=center;verticalAlign=middle;whiteSpace=wrap;rounded=0;fontSize=20;" vertex="1" parent="1">
          <mxGeometry x="432.5" y="185" width="80" height="30" as="geometry" />
        </mxCell>
        <mxCell id="NWheqMKRCk0c7_515TsI-11" value="" style="rounded=0;whiteSpace=wrap;html=1;dashed=1;" vertex="1" parent="1">
          <mxGeometry x="57.5" y="260" width="365" height="60" as="geometry" />
        </mxCell>
        <mxCell id="NWheqMKRCk0c7_515TsI-13" value="platform firmware" style="rounded=0;whiteSpace=wrap;html=1;fontSize=16;" vertex="1" parent="1">
          <mxGeometry x="57.5" y="260" width="255" height="60" as="geometry" />
        </mxCell>
        <mxCell id="NWheqMKRCk0c7_515TsI-14" value="SM" style="rounded=0;whiteSpace=wrap;html=1;fontSize=16;fillColor=#d5e8d4;strokeColor=#82b366;" vertex="1" parent="1">
          <mxGeometry x="312.5" y="260" width="110" height="40" as="geometry" />
        </mxCell>
        <mxCell id="NWheqMKRCk0c7_515TsI-15" value="M-mode" style="text;html=1;align=center;verticalAlign=middle;whiteSpace=wrap;rounded=0;fontSize=20;" vertex="1" parent="1">
          <mxGeometry x="432.5" y="290" width="80" height="30" as="geometry" />
        </mxCell>
        <mxCell id="NWheqMKRCk0c7_515TsI-16" value="Trusted HW" style="text;html=1;align=center;verticalAlign=middle;whiteSpace=wrap;rounded=0;fontSize=20;" vertex="1" parent="1">
          <mxGeometry x="430" y="355" width="90" height="30" as="geometry" />
        </mxCell>
        <mxCell id="NWheqMKRCk0c7_515TsI-17" value="loader" style="rounded=0;whiteSpace=wrap;html=1;fontSize=16;fillColor=#d5e8d4;strokeColor=#82b366;" vertex="1" parent="1">
          <mxGeometry x="312.5" y="300" width="110" height="20" as="geometry" />
        </mxCell>
        <mxCell id="NWheqMKRCk0c7_515TsI-18" value="HW features" style="rounded=0;whiteSpace=wrap;html=1;fontSize=16;fillColor=#60a917;fontColor=#ffffff;strokeColor=#2D7600;" vertex="1" parent="1">
          <mxGeometry x="57.5" y="350" width="105" height="40" as="geometry" />
        </mxCell>
        <mxCell id="NWheqMKRCk0c7_515TsI-19" value="RoT" style="rounded=0;whiteSpace=wrap;html=1;fontSize=16;fillColor=#60a917;fontColor=#ffffff;strokeColor=#2D7600;" vertex="1" parent="1">
          <mxGeometry x="180" y="350" width="90" height="40" as="geometry" />
        </mxCell>
        <mxCell id="NWheqMKRCk0c7_515TsI-20" value="RISC-V cores" style="rounded=0;whiteSpace=wrap;html=1;fontSize=16;fillColor=#60a917;fontColor=#ffffff;strokeColor=#2D7600;" vertex="1" parent="1">
          <mxGeometry x="292.5" y="350" width="130" height="40" as="geometry" />
        </mxCell>
        <mxCell id="NWheqMKRCk0c7_515TsI-21" value="" style="endArrow=none;dashed=1;html=1;dashPattern=1 3;strokeWidth=2;rounded=0;entryX=1.004;entryY=0.797;entryDx=0;entryDy=0;entryPerimeter=0;" edge="1" parent="1" target="k55XzM7_AfMvwkgNl6W--1">
          <mxGeometry width="50" height="50" relative="1" as="geometry">
            <mxPoint x="20" y="330" as="sourcePoint" />
            <mxPoint x="70" y="280" as="targetPoint" />
          </mxGeometry>
        </mxCell>
        <mxCell id="NWheqMKRCk0c7_515TsI-22" value="SDK" style="rounded=0;whiteSpace=wrap;html=1;fontSize=16;" vertex="1" parent="1">
          <mxGeometry x="210" y="170" width="80" height="60" as="geometry" />
        </mxCell>
        <mxCell id="NWheqMKRCk0c7_515TsI-23" value="FPGA SM" style="rounded=0;whiteSpace=wrap;html=1;fontSize=16;fillColor=#d5e8d4;strokeColor=#82b366;" vertex="1" parent="1">
          <mxGeometry x="610" y="250" width="120" height="40" as="geometry" />
        </mxCell>
        <mxCell id="NWheqMKRCk0c7_515TsI-24" value="enclave IP" style="rounded=0;whiteSpace=wrap;html=1;fontSize=16;labelBackgroundColor=none;fillColor=#dae8fc;strokeColor=#6c8ebf;" vertex="1" parent="1">
          <mxGeometry x="612.5" y="55" width="112.5" height="40" as="geometry" />
        </mxCell>
        <mxCell id="NWheqMKRCk0c7_515TsI-25" value="enclave IP" style="rounded=0;whiteSpace=wrap;html=1;fontSize=16;labelBackgroundColor=none;fillColor=#dae8fc;strokeColor=#6c8ebf;" vertex="1" parent="1">
          <mxGeometry x="612.5" y="120" width="112.5" height="40" as="geometry" />
        </mxCell>
        <mxCell id="NWheqMKRCk0c7_515TsI-26" value="enclave IP" style="rounded=0;whiteSpace=wrap;html=1;fontSize=16;labelBackgroundColor=none;fillColor=#dae8fc;strokeColor=#6c8ebf;" vertex="1" parent="1">
          <mxGeometry x="612.5" y="185" width="112.5" height="40" as="geometry" />
        </mxCell>
        <mxCell id="NWheqMKRCk0c7_515TsI-27" value="" style="shape=flexArrow;endArrow=classic;startArrow=classic;html=1;rounded=0;fillColor=#dae8fc;strokeColor=#6c8ebf;endSize=6;entryX=0;entryY=0.5;entryDx=0;entryDy=0;startSize=6;targetPerimeterSpacing=0;" edge="1" parent="1" target="NWheqMKRCk0c7_515TsI-23">
          <mxGeometry width="100" height="100" relative="1" as="geometry">
            <mxPoint x="422.5" y="269.5" as="sourcePoint" />
            <mxPoint x="542.5" y="269.5" as="targetPoint" />
          </mxGeometry>
        </mxCell>
        <mxCell id="NWheqMKRCk0c7_515TsI-29" value="PCIe" style="text;html=1;align=center;verticalAlign=middle;whiteSpace=wrap;rounded=0;fontSize=14;fontColor=light-dark(#6666FF,#EDEDED);" vertex="1" parent="1">
          <mxGeometry x="460" y="240" width="80" height="30" as="geometry" />
        </mxCell>
        <mxCell id="NWheqMKRCk0c7_515TsI-32" value="PUF" style="rounded=0;whiteSpace=wrap;html=1;fontSize=16;fillColor=#d5e8d4;strokeColor=#82b366;" vertex="1" parent="1">
          <mxGeometry x="600" y="355" width="140" height="40" as="geometry" />
        </mxCell>
      </root>
    </mxGraphModel>
  </diagram>
  <diagram id="AX_PNSprOtDnCvLPGyHK" name="CPU-FPGA overview（module）">
    <mxGraphModel dx="954" dy="539" grid="1" gridSize="10" guides="1" tooltips="1" connect="1" arrows="1" fold="1" page="1" pageScale="1" pageWidth="827" pageHeight="1169" math="0" shadow="0">
      <root>
        <mxCell id="0" />
        <mxCell id="1" parent="0" />
      </root>
    </mxGraphModel>
  </diagram>
  <diagram id="G2TH_kOnZWlZddMKmQzn" name="SM（components）">
    <mxGraphModel dx="954" dy="539" grid="1" gridSize="10" guides="1" tooltips="1" connect="1" arrows="1" fold="1" page="1" pageScale="1" pageWidth="827" pageHeight="1169" math="0" shadow="0">
      <root>
        <mxCell id="0" />
        <mxCell id="1" parent="0" />
      </root>
    </mxGraphModel>
  </diagram>
  <diagram name="SM_in_FPGA" id="-NoCwZ9VtHlLfgaa3P4A">
    <mxGraphModel dx="954" dy="539" grid="1" gridSize="10" guides="1" tooltips="1" connect="1" arrows="1" fold="1" page="1" pageScale="1" pageWidth="827" pageHeight="1169" math="0" shadow="0">
      <root>
        <mxCell id="0" />
        <mxCell id="1" parent="0" />
        <mxCell id="Va6lcC6gXC3a13Kguk66-1" value="" style="rounded=0;whiteSpace=wrap;html=1;" parent="1" vertex="1">
          <mxGeometry x="160" y="200" width="120" height="60" as="geometry" />
        </mxCell>
      </root>
    </mxGraphModel>
  </diagram>
</mxfile>
